<?xml version="1.0" standalone="no"?>
<!DOCTYPE svg PUBLIC "-//W3C//DTD SVG 20010904//EN"
 "http://www.w3.org/TR/2001/REC-SVG-20010904/DTD/svg10.dtd">
<svg version="1.0" xmlns="http://www.w3.org/2000/svg"
 width="512.000000pt" height="512.000000pt" viewBox="0 0 512.000000 512.000000"
 preserveAspectRatio="xMidYMid meet">
<metadata>
Created by potrace 1.11, written by Peter Selinger 2001-2013
</metadata>
<g transform="translate(0.000000,512.000000) scale(0.100000,-0.100000)"
fill="#000000" stroke="none">
<path d="M3120 4778 c-41 -17 -102 -36 -135 -43 -149 -32 -229 -63 -405 -156
-30 -16 -58 -29 -62 -29 -4 0 -8 18 -8 39 0 23 -8 48 -19 62 -18 22 -20 22
-62 9 -40 -13 -135 -60 -282 -139 -49 -27 -119 -74 -164 -111 -7 -6 -23 -14
-35 -19 -13 -5 -47 -28 -77 -50 -44 -33 -63 -41 -98 -41 -24 0 -43 -3 -43 -8
0 -4 -25 -18 -55 -31 -31 -13 -85 -43 -121 -67 -61 -40 -66 -42 -92 -28 -18 8
-42 11 -67 7 -34 -5 -59 -24 -160 -123 -88 -86 -140 -129 -195 -158 -42 -23
-87 -56 -100 -74 -13 -18 -28 -37 -33 -43 -72 -86 -246 -365 -287 -463 -23
-52 -23 -81 -4 -179 6 -29 3 -34 -28 -53 -31 -18 -54 -58 -81 -141 -8 -25 8
-41 49 -48 32 -6 38 -11 35 -26 -13 -73 -11 -225 4 -308 34 -183 151 -476 244
-608 14 -20 33 -47 41 -59 8 -12 25 -33 37 -46 13 -14 23 -28 23 -33 0 -11 89
-101 130 -132 19 -15 56 -47 81 -73 26 -25 51 -46 55 -46 5 0 38 -25 74 -56
67 -56 131 -102 224 -157 29 -18 74 -45 100 -62 26 -16 73 -46 104 -66 31 -19
92 -58 135 -85 89 -55 393 -268 419 -293 55 -51 71 -68 79 -89 19 -48 11 -68
-48 -118 -32 -26 -67 -59 -78 -72 -11 -14 -36 -44 -55 -68 -19 -24 -58 -87
-86 -142 -28 -54 -65 -123 -82 -153 -23 -42 -72 -174 -72 -195 0 -2 374 -4
830 -4 577 0 830 3 830 11 0 25 -42 183 -60 224 -5 11 -18 41 -29 67 -12 26
-21 49 -21 52 0 21 -113 187 -166 245 l-67 72 0 82 c1 130 28 171 177 272 20
14 42 29 49 35 72 59 111 96 239 225 82 83 166 170 186 193 20 24 48 56 62 71
56 61 112 157 146 254 34 93 37 114 41 232 4 104 0 153 -17 245 -11 63 -25
151 -31 195 -6 44 -13 87 -16 95 -3 8 -15 38 -25 65 -22 57 -43 138 -62 240
-8 39 -21 99 -29 135 -9 36 -23 99 -33 140 -9 41 -30 113 -45 160 -16 47 -29
95 -29 107 0 12 -4 24 -9 28 -6 3 -13 26 -17 51 -6 43 -5 47 26 72 34 28 123
116 150 148 8 10 45 63 81 117 74 110 77 130 23 153 -19 8 -34 19 -34 24 0 5
19 22 42 36 24 15 48 32 54 39 7 6 39 29 73 51 34 22 65 51 72 66 17 41 -6 79
-60 99 -53 19 -65 39 -57 90 6 38 5 40 -37 67 -24 15 -64 36 -88 46 -24 10
-55 24 -69 31 -14 7 -40 16 -57 20 -28 5 -33 11 -33 34 0 39 -17 57 -85 86
-58 26 -64 27 -245 24 l-185 -3 -5 37 c-11 82 -129 102 -270 45z m723 -1944
c114 -54 74 -232 -51 -234 -128 -1 -170 185 -53 234 47 19 63 19 104 0z m-894
-303 c36 -26 56 -84 47 -134 -22 -115 -197 -133 -241 -25 -20 50 -19 76 3 117
38 70 125 89 191 42z"/>
</g>
</svg>
